# xmcd CD database file
#
# Track frame offsets:
#	150
#	33420
#	59902
#	92430
#	108155
#	162697
#	182485
#	201265
#	204970
#	215900
#	222342
#	240755
#	257807
#	262095
#	295545
#	318612
#
# Disc length: 4408 seconds
#
# Revision: 0
# Processed by: cddbd v1.5.1PL0 Copyright (c) Steve Scherf et al.
# Submitted via: CDex 1.51
#
DISCID=f4113610
DTITLE=Chris Hinze - Tibet Impressions II
DYEAR=1900
DGENRE=New Age
TTITLE0=So give them hope
TTITLE1=Golden Light
TTITLE2=Body energy
TTITLE3=Yamantaka
TTITLE4=The Message
TTITLE5=Mount Kailash
TTITLE6=The River
TTITLE7=Workers Song
TTITLE8=Tribute to Tsurphu Part 1
TTITLE9=Interlude
TTITLE10=Tribute to Tsurphu Part 2
TTITLE11=Life at Barkhor
TTITLE12=Streetsinger
TTITLE13=Path Inner Peace
TTITLE14=Remix of: So give them hope
TTITLE15=Remix of: Body energy
EXTD=
EXTT0=
EXTT1=
EXTT2=
EXTT3=
EXTT4=
EXTT5=
EXTT6=
EXTT7=
EXTT8=
EXTT9=
EXTT10=
EXTT11=
EXTT12=
EXTT13=
EXTT14=
EXTT15=
PLAYORDER=
